<svg width="974" height="255" viewBox="0 0 974 255" fill="none" xmlns="http://www.w3.org/2000/svg">
<path d="M0 255V34.2537H38.0469V0H148.383V34.2537H186.43V148.433H148.383V182.687H41.8516V255H0ZM41.8516 144.627H144.578V41.8657H41.8516V144.627Z" fill="white"/>
<path d="M220.672 255V106.567H258.719V72.3134H369.055V106.567H407.102V148.433H365.25V110.373H262.523V255H220.672Z" fill="white"/>
<path d="M452.758 255V148.433H494.609V255H452.758Z" fill="white"/>
<path d="M612.555 255V220.746H574.508V148.433H540.266V72.3134H578.312V144.627H612.555V216.94H646.797V144.627H681.039V72.3134H722.891V148.433H688.648V220.746H650.602V255H612.555Z" fill="white"/>
<path d="M772.352 255V0H924.539V41.8657H810.398V106.567H882.688V148.433H810.398V255H772.352Z" fill="white"/>
<path d="M932.148 255V148.433H974V255H932.148ZM932.148 106.567V72.3134H974V106.567H932.148Z" fill="white"/>
<path d="M452.758 72.3134V106.567H494.609V72.3134H452.758Z" fill="white"/>
</svg>
